# xmcd
#
# Track frame offsets:
#	150
#	11648
#	25150
#	41403
#	65448
#	82695
#	98083
#	110681
#	130654
#	137602
#	152656
#	169308
#	184095
#
# Disc length: 2755 seconds
#
# Revision: 1
# Processed by: cddbd v1.5.2PL0 Copyright (c) Steve Scherf et al.
# Submitted via: audiograbber 1.83.01
#
DISCID=9c0ac10d
DTITLE=Bob Downes - Bob Downes and The Alphorn Brothers
DYEAR=2015
DGENRE=Open Musik
TTITLE0=Heading for the Blues
TTITLE1=Stomping
TTITLE2=Dawn approach
TTITLE3=Dr. Love
TTITLE4=I got the drift Baby
TTITLE5=Goin' down to New Orleans
TTITLE6=The Prowler
TTITLE7=God bless the Blues
TTITLE8=Pink Elephants
TTITLE9=Sundown
TTITLE10=When the Blues are bluer than blue
TTITLE11=Reflections
TTITLE12=Tatsunori Hasebe
EXTD=http://www.bobdownesmusic.de/
EXTT0=
EXTT1=
EXTT2=
EXTT3=
EXTT4=
EXTT5=
EXTT6=
EXTT7=
EXTT8=
EXTT9=
EXTT10=
EXTT11=
EXTT12=
PLAYORDER=
